<svg xmlns="http://www.w3.org/2000/svg" width="300" height="52" viewBox="0 0 300 52">
    <g fill="none" fill-rule="evenodd">
        <rect width="300" height="52" fill="#00ACED" rx="8"/>
        <path fill="#0695CB" d="M8 0h44v52H8a8 8 0 0 1-8-8V8a8 8 0 0 1 8-8z"/>
        <text fill="#FFF" font-family="Roboto-Bold, Roboto" font-size="16" font-weight="bold">
            <tspan x="95.109" y="32">LOGIN WITH TWITTER</tspan>
        </text>
        <path fill="#FFF" d="M35.492 22.066v.524c0 5.465-4.024 11.716-11.35 11.716-2.288 0-4.363-.656-6.142-1.836.296.044.635.044.974.044 1.864 0 3.6-.656 4.955-1.749-1.736-.044-3.218-1.224-3.727-2.886.212.088.466.088.72.088.382 0 .72-.043 1.06-.131-1.822-.393-3.177-2.055-3.177-4.065v-.044c.508.306 1.143.48 1.779.525a4.222 4.222 0 0 1-1.78-3.454c0-.743.212-1.443.551-2.055 1.99 2.492 4.913 4.153 8.26 4.285a3.203 3.203 0 0 1-.128-.918c0-2.274 1.779-4.11 4.024-4.11 1.143 0 2.16.48 2.88 1.268a8.124 8.124 0 0 0 2.54-.962 4.198 4.198 0 0 1-1.735 2.273 9.883 9.883 0 0 0 2.287-.656c-.551.831-1.229 1.53-1.99 2.143"/>
    </g>
</svg>
